<svg width="254" height="109" viewBox="0 0 254 109" fill="none" xmlns="http://www.w3.org/2000/svg">
<path d="M209.254 91.4298C205.942 92.368 207.734 97.2681 205.053 96.1892C202.371 95.1103 203.212 92.456 204.528 89.27C205.791 86.0841 209.02 84.377 211.702 85.456C214.33 86.535 213.599 90.1966 209.254 91.4298ZM214.166 84.7854C214.774 84.1737 215.517 84.2775 215.995 84.8063C216.501 85.3086 216.609 86.0507 216.001 86.6625C215.129 87.5402 214.254 87.5694 213.775 87.0406C213.27 86.5383 213.267 85.6898 214.166 84.7854ZM212.279 83.545C212.675 83.0399 213.179 83.0649 213.578 83.3554C214.003 83.6722 214.164 84.149 213.794 84.6805C213.266 85.4246 212.657 85.506 212.231 85.1892C211.859 84.8721 211.778 84.2625 212.279 83.545ZM210.395 83.153C210.659 82.6749 211.11 82.647 211.508 82.8314C211.907 83.0688 212.093 83.466 211.83 83.9441C211.461 84.6347 210.931 84.7954 210.532 84.558C210.134 84.3206 210 83.8702 210.395 83.153ZM208.726 83.609C208.858 83.2108 209.228 83.1036 209.547 83.2617C209.866 83.4198 210.079 83.6844 209.894 84.0827C209.657 84.6402 209.313 84.8269 208.968 84.6954C208.623 84.5639 208.489 84.1666 208.726 83.609ZM207.402 84.1434C207.507 83.8249 207.799 83.7444 208.064 83.8497C208.33 83.9549 208.463 84.1932 208.358 84.5117C208.174 84.963 207.882 85.0965 207.617 84.9913C207.378 84.9124 207.244 84.6212 207.402 84.1434ZM206.968 98.1455C205.439 101.226 200.95 98.6149 201.542 101.424C202.134 104.233 204.891 103.906 208.256 103.18C211.622 102.453 213.867 99.6092 213.275 96.8002C212.709 94.0177 208.971 94.0558 206.968 98.1455ZM214.381 94.4633C215.096 93.9573 215.12 93.2413 214.694 92.6593C214.268 92.0772 213.578 91.8142 212.863 92.3202C211.831 93.0393 211.675 93.8883 212.101 94.4704C212.5 95.026 213.349 95.1825 214.381 94.4633ZM215.289 96.5288C215.845 96.2354 215.923 95.7314 215.709 95.2547C215.496 94.7781 215.018 94.5144 214.462 94.8078C213.641 95.2081 213.457 95.7655 213.671 96.2422C213.884 96.7188 214.468 96.9291 215.289 96.5288ZM215.322 98.4645C215.851 98.3037 215.983 97.8525 215.822 97.4288C215.662 97.005 215.29 96.741 214.76 96.9017C214.018 97.1692 213.781 97.6207 213.915 98.071C214.075 98.4948 214.58 98.7319 215.322 98.4645ZM214.584 100.058C214.982 99.977 215.14 99.6583 215.086 99.2872C215.005 98.9427 214.766 98.7048 214.341 98.7592C213.758 98.867 213.521 99.2125 213.575 99.5835C213.629 99.9546 213.974 100.139 214.584 100.058ZM213.792 101.227C214.137 101.146 214.269 100.907 214.188 100.616C214.108 100.324 213.921 100.139 213.577 100.22C213.1 100.327 212.915 100.567 212.943 100.858C213.049 101.123 213.342 101.308 213.792 101.227Z" fill="white" fill-opacity="0.8"/>
<path d="M93.5697 94.2016C92.8443 90.8369 87.84 92.3128 89.0876 89.7055C90.3352 87.0982 92.9305 88.1059 96.0262 89.6222C99.1252 91.0856 100.623 94.4176 99.3754 97.0249C98.131 99.5793 94.5235 98.6163 93.5697 94.2016ZM99.8876 99.5266C100.459 100.172 100.308 100.907 99.7501 101.351C99.2167 101.824 98.4692 101.884 97.8974 101.239C97.077 100.312 97.1036 99.4372 97.6619 98.9929C98.1953 98.5206 99.0423 98.572 99.8876 99.5266ZM101.246 97.723C101.724 98.1505 101.667 98.6518 101.352 99.0311C101.009 99.4353 100.523 99.5652 100.016 99.1625C99.307 98.5881 99.2646 97.9745 99.6079 97.5703C99.948 97.2191 100.562 97.1767 101.246 97.723ZM101.757 95.8679C102.217 96.1615 102.216 96.613 102.007 96.9988C101.745 97.3813 101.336 97.5425 100.876 97.2489C100.21 96.8365 100.084 96.2975 100.346 95.915C100.608 95.5324 101.066 95.4274 101.757 95.8679ZM101.408 94.1731C101.797 94.3295 101.881 94.7065 101.702 95.0145C101.524 95.3224 101.247 95.5181 100.861 95.3087C100.32 95.0367 100.155 94.6814 100.309 94.3454C100.462 94.0093 100.867 93.9011 101.408 94.1731ZM100.959 92.8175C101.27 92.9427 101.332 93.2387 101.21 93.4969C101.088 93.7551 100.842 93.873 100.531 93.7478C100.092 93.5352 99.9775 93.2361 100.099 92.9778C100.193 92.7444 100.492 92.6298 100.959 92.8175ZM87.0132 91.4922C84.0362 89.7705 86.9282 85.4567 84.0873 85.8685C81.2463 86.2804 81.3967 89.0523 81.9072 92.4571C82.4176 95.862 85.113 98.2837 87.954 97.8719C90.7668 97.4849 90.9671 93.7513 87.0132 91.4922ZM90.2156 99.125C90.6751 99.8702 91.3881 99.9401 91.9961 99.552C92.6041 99.1638 92.9106 98.4918 92.4511 97.7466C91.7992 96.6709 90.9619 96.4607 90.3539 96.8488C89.7739 97.212 89.5637 98.0494 90.2156 99.125ZM88.0964 99.8995C88.3538 100.473 88.8519 100.583 89.3412 100.4C89.8304 100.217 90.1241 99.757 89.8667 99.1835C89.5195 98.3389 88.9749 98.1199 88.4857 98.3027C87.9964 98.4855 87.7493 99.0549 88.0964 99.8995ZM86.1627 99.8086C86.2893 100.348 86.7312 100.507 87.1644 100.374C87.5975 100.241 87.8847 99.8866 87.758 99.3476C87.5384 98.5905 87.1029 98.3249 86.6449 98.4299C86.2118 98.563 85.943 99.0514 86.1627 99.8086ZM84.6196 98.971C84.6749 99.3729 84.9829 99.551 85.3567 99.5206C85.7056 99.4621 85.9582 99.2383 85.931 98.8116C85.8605 98.2229 85.5309 97.9638 85.1572 97.9942C84.7834 98.0246 84.5772 98.3575 84.6196 98.971ZM83.5033 98.1063C83.5618 98.4552 83.792 98.602 84.0879 98.5403C84.3839 98.4785 84.5804 98.3045 84.5219 97.9556C84.445 97.4728 84.218 97.273 83.9253 97.2818C83.6542 97.3716 83.4512 97.6515 83.5033 98.1063Z" fill="white" fill-opacity="0.8"/>
<path d="M239.273 68.4435C236.025 69.5841 238.115 74.3644 235.372 73.4528C232.63 72.5411 233.305 69.8402 234.422 66.5791C235.486 63.3214 238.605 61.4186 241.348 62.3303C244.038 63.2454 243.533 66.945 239.273 68.4435ZM243.766 61.5092C244.335 60.8612 245.082 60.919 245.593 61.4173C246.128 61.8875 246.282 62.6215 245.713 63.2696C244.897 64.1994 244.025 64.2825 243.514 63.7841C242.979 63.314 242.924 62.4672 243.766 61.5092ZM241.806 60.3874C242.171 59.8589 242.675 59.8527 243.091 60.1181C243.535 60.4082 243.724 60.8742 243.388 61.4274C242.907 62.2026 242.304 62.3214 241.86 62.0314C241.469 61.7378 241.35 61.1344 241.806 60.3874ZM239.902 60.1122C240.136 59.6188 240.584 59.5632 240.993 59.7227C241.405 59.9351 241.616 60.32 241.382 60.8134C241.056 61.5254 240.537 61.7185 240.125 61.5061C239.713 61.2937 239.551 60.8524 239.902 60.1122ZM238.264 60.6701C238.37 60.2646 238.734 60.1348 239.062 60.273C239.39 60.4111 239.619 60.662 239.459 61.071C239.257 61.6421 238.925 61.8496 238.572 61.7396C238.22 61.6296 238.062 61.2413 238.264 60.6701ZM236.975 61.2851C237.06 60.9607 237.346 60.8625 237.618 60.9512C237.889 61.0399 238.037 61.2694 237.952 61.5938C237.796 62.0557 237.513 62.2068 237.242 62.1182C236.998 62.0542 236.847 61.7717 236.975 61.2851ZM237.405 75.2874C236.069 78.4564 231.427 76.1266 232.191 78.8937C232.955 81.6609 235.686 81.1649 239.001 80.2326C242.315 79.3003 244.381 76.3232 243.617 73.5561C242.881 70.8137 239.151 71.082 237.405 75.2874ZM244.577 71.1555C245.259 70.6064 245.239 69.8902 244.778 69.3355C244.317 68.7808 243.612 68.5608 242.93 69.1099C241.944 69.8913 241.84 70.7483 242.301 71.303C242.734 71.8329 243.591 71.9368 244.577 71.1555ZM245.61 73.1611C246.147 72.834 246.194 72.3261 245.951 71.8635C245.709 71.4009 245.215 71.1672 244.679 71.4943C243.884 71.9444 243.735 72.5121 243.977 72.9747C244.22 73.4372 244.816 73.6112 245.61 73.1611ZM245.762 75.091C246.281 74.898 246.384 74.4395 246.198 74.0265C246.012 73.6134 245.624 73.3728 245.105 73.5659C244.381 73.8785 244.172 74.3438 244.334 74.785C244.52 75.1981 245.038 75.4037 245.762 75.091ZM245.124 76.7267C245.516 76.6216 245.654 76.2938 245.577 75.9268C245.475 75.5879 245.222 75.3652 244.802 75.4456C244.227 75.5892 244.011 75.9486 244.088 76.3156C244.165 76.6826 244.521 76.8456 245.124 76.7267ZM244.406 77.9425C244.745 77.8408 244.861 77.5941 244.763 77.3081C244.665 77.0222 244.468 76.849 244.129 76.9507C243.659 77.0874 243.49 77.3375 243.535 77.6269C243.658 77.8847 243.961 78.051 244.406 77.9425Z" fill="white" fill-opacity="0.8"/>
<path d="M16.8661 11.8402C14.9679 8.96884 10.8417 12.1618 11.0569 9.27936C11.2721 6.39696 14.0562 6.39309 17.4913 6.68127C20.9101 6.91896 23.5159 9.47923 23.3007 12.3616C23.0693 15.1935 19.3584 15.6068 16.8661 11.8402ZM24.6867 14.5064C25.454 14.9003 25.5803 15.6396 25.2215 16.2563C24.8961 16.8901 24.2217 17.2184 23.4544 16.8245C22.3535 16.2593 22.0604 15.4344 22.4192 14.8176C22.7446 14.1838 23.5524 13.9241 24.6867 14.5064ZM25.2969 12.3326C25.8982 12.557 26.0272 13.0448 25.8713 13.5127C25.6982 14.014 25.2925 14.3116 24.674 14.1205C23.8049 13.8429 23.5425 13.2866 23.7155 12.7853C23.9048 12.3345 24.4611 12.0721 25.2969 12.3326ZM25.0992 10.4185C25.6348 10.5249 25.798 10.9459 25.7431 11.3814C25.6376 11.8331 25.3158 12.1315 24.7802 12.0252C24.0102 11.8828 23.6964 11.4266 23.8019 10.9749C23.9073 10.5232 24.2959 10.259 25.0992 10.4185ZM24.1587 8.96616C24.578 8.97063 24.7926 9.29157 24.7385 9.6432C24.6845 9.99482 24.497 10.2779 24.0615 10.223C23.4583 10.1662 23.1761 9.89489 23.1968 9.52614C23.2175 9.15739 23.5556 8.90942 24.1587 8.96616ZM23.248 7.86631C23.5834 7.86988 23.7484 8.12321 23.7286 8.40812C23.7088 8.69302 23.5222 8.89229 23.1868 8.88872C22.7009 8.84999 22.4853 8.6129 22.5052 8.32799C22.5078 8.07645 22.7449 7.86095 23.248 7.86631ZM9.77325 11.6975C6.37421 11.1749 7.50162 6.10521 5.00435 7.52094C2.50709 8.93667 3.65415 11.4646 5.36655 14.4514C7.07895 17.4382 10.4699 18.7154 12.9672 17.2997C15.4473 15.9173 14.2776 12.3661 9.77325 11.6975ZM15.5296 17.6457C16.2283 18.173 16.918 17.9791 17.3435 17.3967C17.769 16.8142 17.8104 16.0767 17.1116 15.5493C16.1135 14.784 15.257 14.8922 14.8315 15.4747C14.4232 16.0238 14.5314 16.8803 15.5296 17.6457ZM13.8365 19.1371C14.2846 19.5779 14.7886 19.4994 15.1781 19.1514C15.5675 18.8033 15.6739 18.2678 15.2257 17.8269C14.5955 17.1661 14.0085 17.1599 13.6191 17.5079C13.2296 17.856 13.2062 18.4763 13.8365 19.1371ZM12.0018 19.7548C12.3156 20.211 12.7854 20.1992 13.1406 19.9179C13.4958 19.6366 13.6346 19.202 13.3208 18.7458C12.8411 18.1202 12.3389 18.031 11.9503 18.2952C11.5951 18.5765 11.5221 19.1292 12.0018 19.7548ZM10.26 19.535C10.4574 19.8893 10.8091 19.9434 11.1462 19.7792C11.4501 19.598 11.6042 19.2978 11.4238 18.9101C11.1443 18.3872 10.7431 18.2655 10.4059 18.4296C10.0687 18.5938 9.99754 18.9787 10.26 19.535ZM8.90573 19.1348C9.08698 19.4386 9.35475 19.4918 9.60809 19.3268C9.86142 19.1618 9.9813 18.9283 9.80006 18.6244C9.55298 18.2025 9.26897 18.0989 8.99941 18.2134C8.77944 18.3955 8.69201 18.73 8.90573 19.1348Z" fill="white" fill-opacity="0.8"/>
</svg>
