<svg width="31" height="20" viewBox="0 0 31 20" fill="none" xmlns="http://www.w3.org/2000/svg">
<path d="M12.5834 0H27.1667C28.7855 0 30.0834 1.1125 30.0834 2.5V5H25.1105L21.3334 8.2375V13.2375L18.4167 15.7375V20H12.5834V15.7375L9.66675 13.2375V6.7625L12.5834 4.2625V0ZM24.2501 9.2625V12.5H30.0834V7.5H26.3063L24.2501 9.2625ZM7.6105 5L9.66675 3.2375V0H3.83341C2.21466 0 0.916748 1.1125 0.916748 2.5V5H7.6105ZM6.75008 12.5V7.5H0.916748V12.5H6.75008ZM9.66675 16.7625L7.6105 15H0.916748V17.5C0.916748 18.8875 2.21466 20 3.83341 20H9.66675V16.7625ZM23.3897 15L21.3334 16.7625V20H27.1667C28.7855 20 30.0834 18.8875 30.0834 17.5V15H23.3897Z" fill="#FF9800"/>
</svg>
