<svg width="1011" height="638" viewBox="0 0 1011 638" fill="none" xmlns="http://www.w3.org/2000/svg">
<g clip-path="url(#clip0_515_273)">
<rect width="1011" height="637.5" rx="44" fill="#455A64"/>
<g opacity="0.1">
<path d="M12.2267 621.672C4.10651 627.097 -4.1911 628.161 -12.2404 621.92C-20.2543 615.715 -20.9988 607.276 -17.9138 596.886C-28.4099 599.155 -37.8776 599.085 -44.1185 589.723C-49.4374 581.709 -48.161 573.837 -42.913 566.284C-42.2747 565.646 -41.6008 565.008 -40.9625 564.37C-37.2038 561.675 -32.8424 559.051 -28.4809 559.937C-20.5025 561.533 -21.9563 557.845 -21.5308 552.207C-20.928 544.441 -21.7791 541.25 -30.4666 542.491C-33.6225 542.952 -37.2747 540.115 -40.7143 538.803C-41.6362 537.881 -42.5583 536.959 -43.4802 536.038C-48.09 528.307 -49.5083 520.4 -43.9057 512.599C-37.7003 503.911 -28.9063 503.167 -18.1266 506.074C-20.857 495.436 -20.467 486.11 -11.1057 479.941C-3.12729 474.657 4.74459 476.004 12.262 481.217C12.9003 481.855 13.5387 482.529 14.177 483.167C15.7017 486.926 19.0348 491.004 18.4674 494.443C16.9072 503.663 21.3043 501.996 27.687 502.528C35.3817 503.167 36.0199 501.074 35.8072 494.514C35.7008 490.791 38.6086 486.997 40.1688 483.238C40.8426 482.529 41.5161 481.855 42.1898 481.146C50.2391 475.473 58.5367 474.515 66.6215 480.685C74.6708 486.82 75.6283 495.224 72.5079 505.542C82.7557 503.769 92.3297 503.344 98.5705 512.776C103.889 520.79 102.684 528.626 97.6131 536.286C96.8329 537.066 96.0529 537.81 95.2728 538.59C91.4432 540.08 87.4362 543.165 83.8548 542.739C76.0536 541.853 76.1247 544.619 76.2311 551.25C76.3375 557.668 75.9473 560.753 83.8548 559.866C87.4716 559.476 91.4432 562.561 95.2728 564.05C96.0529 564.83 96.8684 565.611 97.6485 566.426C103.038 574.476 104.102 582.773 97.8968 590.787C91.7623 598.73 83.4648 600.007 73.0751 596.602C75.2027 607.311 74.8482 617.098 64.9195 623.268C57.3312 627.984 49.7783 626.707 42.5446 622.062C41.5517 621.069 40.5942 620.112 39.6014 619.119C35.7717 613.446 34.7789 607.134 35.8427 600.538C24.9566 599.297 15.9144 599.616 17.0137 614.048C17.1555 615.786 15.2408 617.665 14.2479 619.474C13.6451 620.218 12.9359 620.963 12.2267 621.672ZM64.3875 588.447C58.1466 584.652 71.2667 572.738 57.3311 572.703C50.2038 572.667 48.5725 575.114 48.608 581.674C48.7144 595.468 60.4515 582.418 64.3875 588.447ZM-9.54546 588.624C-5.71583 583.376 8.21981 595.787 5.80857 578.802C3.89376 565.292 -4.72308 575.93 -9.43919 572.454C-7.52438 578.057 -9.58091 582.773 -9.54546 588.624ZM64.8485 514.478C48.3598 516.18 48.75 516.251 48.289 520.081C46.6578 533.378 56.6929 528.839 64.5295 530.931C62.1892 524.761 63.9975 519.726 64.8485 514.478ZM-9.68721 513.769C-8.76527 519.762 -8.19801 524.939 -9.11996 530.719C-4.58114 526.641 4.53187 536.711 6.09209 523.308C7.97144 506.748 -5.99943 519.903 -9.68721 513.769ZM20.9141 550.328C21.1978 553.874 18.5385 558.873 25.7368 557.49C29.3891 556.781 34.1052 559.37 33.4669 551.782C33.0414 546.64 32.7933 544.619 26.8715 545.009C22.4391 545.257 19.2475 544.831 20.9141 550.328Z" fill="white"/>
<path d="M14.2124 483.203C13.5741 482.565 12.9357 481.891 12.2974 481.252C12.191 480.437 12.2975 479.515 11.9784 478.806C7.79418 469.551 7.65239 460.792 16.2336 454.055C23.2191 448.559 31.0911 448.523 38.1475 453.984C46.7997 460.686 46.6578 469.444 42.58 478.699C42.2608 479.444 42.3316 480.331 42.2252 481.146C41.5515 481.855 40.8778 482.529 40.204 483.238C31.5165 486.749 22.8645 486.642 14.2124 483.203Z" fill="white"/>
<path d="M97.7193 566.427C96.9392 565.647 96.1237 564.867 95.3436 564.051C91.6912 555.576 91.7622 547.066 95.3436 538.591C96.1237 537.811 96.9037 537.067 97.6838 536.287C100.45 535.436 103.145 534.372 105.981 533.804C113.995 532.28 120.91 534.23 125.519 541.357C129.739 547.882 129.739 554.726 125.555 561.25C120.981 568.413 114.066 570.363 106.052 568.838C103.18 568.342 100.485 567.278 97.7193 566.427Z" fill="white"/>
<path d="M39.7076 619.119C40.7004 620.112 41.6577 621.105 42.6506 622.062C43.1825 624.048 43.7144 626.034 44.2463 628.055C46.4802 636.53 45.1328 644.083 37.6154 649.295C30.7008 654.082 23.2897 653.976 16.4814 649.012C9.10585 643.622 7.93579 636.034 10.3825 627.63C10.9499 625.644 11.5882 623.658 12.191 621.672C12.9002 620.928 13.6093 620.218 14.3539 619.474C22.7578 615.928 31.1973 616.034 39.7076 619.119Z" fill="white"/>
<path d="M127.79 606.496C128.002 615.893 119.528 624.368 110.131 624.191C101.23 624.013 93.252 616.07 93.0747 607.17C92.862 597.738 101.301 589.299 110.734 589.511C119.634 589.653 127.577 597.56 127.79 606.496Z" fill="white"/>
<path d="M109.457 513.202C100.06 512.6 92.2592 503.557 93.1811 494.338C94.103 485.402 102.578 478.062 111.372 478.629C120.769 479.232 128.605 488.274 127.648 497.494C126.726 506.43 118.251 513.734 109.457 513.202Z" fill="white"/>
<path d="M99.9885 468.239C99.9531 477.636 91.3363 485.898 81.975 485.472C73.0392 485.047 65.3445 476.998 65.38 468.097C65.4155 458.7 74.0676 450.438 83.3935 450.864C92.3293 451.289 100.024 459.374 99.9885 468.239Z" fill="white"/>
<path d="M99.9887 634.331C100.131 643.693 91.6202 652.096 82.2589 651.848C73.3586 651.6 65.4866 643.657 65.3802 634.757C65.2383 625.36 73.7132 616.992 83.1099 617.24C92.0457 617.488 99.8823 625.431 99.9887 634.331Z" fill="white"/>
<path d="M138.144 595.22C128.393 594.369 122.684 589.262 122.187 579.369C121.726 569.937 129.386 562.42 138.818 563.129C148.676 563.874 154.243 569.618 154.066 579.44C153.888 589.333 147.86 594.404 138.144 595.22Z" fill="white"/>
<path d="M137.895 539.761C128.109 538.733 122.506 533.52 122.187 523.627C121.903 514.195 129.704 506.819 139.136 507.67C148.994 508.592 154.419 514.479 154.1 524.265C153.71 534.159 147.54 539.087 137.895 539.761Z" fill="white"/>
<path d="M15.5238 440.049C14.4954 450.474 9.28282 456.325 -0.716763 456.147C-10.6809 455.97 -16.3544 450.119 -16.248 440.191C-16.1062 430.227 -10.2554 424.588 -0.291265 424.659C9.85015 424.73 14.6018 430.971 15.5238 440.049Z" fill="white"/>
<path d="M71.0187 440.617C70.0967 450.368 64.9551 455.971 55.0619 456.325C45.6297 456.644 38.3252 449.056 39.0698 439.624C39.8854 429.801 45.6653 424.376 55.4521 424.624C65.3808 424.873 70.3095 430.936 71.0187 440.617Z" fill="white"/>
<path d="M166.9 536.747C174.666 537.988 179.949 542.669 180.41 551.392C180.836 559.264 172.68 566.958 164.95 565.895C156.44 564.725 151.44 559.441 151.334 550.718C151.263 543.272 158.816 536.534 166.9 536.747Z" fill="white"/>
<path d="M27.0135 398.136C35.5592 399.129 41.339 403.703 41.5163 412.462C41.6582 421.185 36.1976 426.823 27.51 427C18.7869 427.178 13.1487 421.681 12.936 412.994C12.7232 404.235 18.3968 399.484 27.0135 398.136Z" fill="white"/>
<path d="M110.201 425.759C118.782 426.788 124.633 431.362 124.81 440.12C124.988 448.879 119.456 454.588 110.733 454.765C101.974 454.978 96.3008 449.411 96.0526 440.723C95.8399 431.929 101.549 427.178 110.201 425.759Z" fill="white"/>
<path d="M138.356 482.848C129.775 481.82 123.959 477.21 123.782 468.452C123.64 459.693 129.172 454.02 137.859 453.807C146.618 453.63 152.292 459.161 152.504 467.884C152.717 476.678 147.008 481.465 138.356 482.848Z" fill="white"/>
<path d="M152.894 634.863C151.511 643.374 146.83 648.657 138.107 649.083C130.2 649.473 122.576 641.317 123.64 633.551C124.845 625.041 130.164 619.651 138.852 620.112C147.433 620.538 151.972 626.353 152.894 634.863Z" fill="white"/>
<path d="M166.298 482.565C174.809 483.452 179.454 488.133 179.028 496.643C178.603 505.26 173.213 509.55 164.809 509.054C156.902 508.593 152.576 503.664 152.682 495.792C152.824 487.14 157.895 482.991 166.298 482.565Z" fill="white"/>
<path d="M166.262 620.289C157.397 619.474 152.539 615.077 152.645 606.637C152.787 598.198 157.68 593.482 166.084 593.588C174.524 593.695 179.169 598.624 179.134 607.027C179.098 615.573 173.886 619.545 166.262 620.289Z" fill="white"/>
<path d="M82.6853 399.448C91.0892 400.086 95.9826 404.483 95.7698 413.029C95.5925 421.61 90.5217 426.078 82.0823 425.83C74.2103 425.581 69.7071 420.936 69.6007 413.064C69.4589 404.483 74.2814 400.086 82.6853 399.448Z" fill="white"/>
<path d="M193.532 591.142C185.943 589.653 181.263 585.504 181.936 578.199C182.575 571.108 187.468 566.675 194.844 567.42C201.439 568.093 205.623 572.668 205.41 579.37C205.127 586.71 200.127 590.256 193.532 591.142Z" fill="white"/>
<path d="M54.5997 373.243C61.0533 373.669 65.7695 377.002 66.4077 383.739C67.1169 391.15 62.8263 396.044 55.5571 396.434C48.217 396.824 43.5364 392.285 43.4301 384.909C43.3591 378.208 47.6851 374.342 54.5997 373.243Z" fill="white"/>
<path d="M205.587 523.237C204.877 530.293 201.154 535.222 193.849 535.364C186.58 535.506 181.971 530.825 181.864 523.556C181.793 516.854 186.19 512.351 192.75 511.925C200.09 511.393 204.204 515.968 205.587 523.237Z" fill="white"/>
<path d="M11.2333 384.768C10.7014 391.293 7.22629 395.938 0.524442 396.47C-6.85113 397.037 -11.709 392.676 -11.9927 385.371C-12.2409 378.031 -7.63114 373.421 -0.255564 373.457C6.48174 373.492 10.2404 377.889 11.2333 384.768Z" fill="white"/>
<path d="M137.15 402.107C144.597 402.462 148.639 405.83 148.568 412.887C148.497 419.234 144.916 422.957 138.569 423.099C131.619 423.276 127.754 419.482 127.718 412.497C127.718 406.043 131.619 402.958 137.15 402.107Z" fill="white"/>
<path d="M164.95 429.766C172.361 430.12 176.439 433.524 176.368 440.616C176.297 446.999 172.716 450.758 166.297 450.899C159.312 451.077 155.376 447.247 155.376 440.226C155.376 433.737 159.277 430.581 164.95 429.766Z" fill="white"/>
<path d="M120.307 384.625C119.775 390.37 116.761 394.341 111.052 394.625C104.669 394.944 100.662 391.079 100.733 384.696C100.804 378.952 104.599 375.335 110.343 375.299C116.194 375.228 119.314 379.023 120.307 384.625Z" fill="white"/>
<path d="M193.53 644.579C187.431 643.693 183.46 640.395 183.779 633.941C184.062 628.232 187.785 624.616 193.565 624.687C199.948 624.793 203.707 628.693 203.423 635.076C203.175 640.892 199.345 643.906 193.53 644.579Z" fill="white"/>
<path d="M192.998 478.133C187.076 476.892 183.211 473.417 183.921 467.069C184.523 461.538 188.388 457.956 194.097 458.417C200.338 458.878 203.991 462.956 203.317 469.268C202.749 474.835 198.814 477.778 192.998 478.133Z" fill="white"/>
<path d="M230.09 551.143C229.523 556.781 226.615 560.008 221.26 559.973C215.906 559.902 212.715 556.639 212.75 551.285C212.821 545.931 216.084 542.739 221.438 542.775C226.828 542.81 229.558 546.214 230.09 551.143Z" fill="white"/>
<path d="M35.5597 357.251C34.8505 363.244 31.5174 365.939 26.163 365.407C21.3051 364.91 18.7165 361.648 19.0357 356.79C19.3902 351.152 22.9362 348.564 28.326 349.06C33.2194 349.521 35.4179 352.89 35.5597 357.251Z" fill="white"/>
<path d="M90.3073 356.968C89.4208 362.286 86.6551 365.123 81.7972 364.591C77.6484 364.13 75.0244 361.294 75.308 356.968C75.6272 352.074 78.7477 349.415 83.5702 349.876C87.8608 350.266 89.7754 353.422 90.3073 356.968Z" fill="white"/>
<path d="M229.026 495.118C228.672 500.579 226.225 503.451 221.225 503.451C216.899 503.451 214.169 501.004 213.814 496.749C213.424 491.927 215.836 488.735 220.8 488.381C225.871 487.991 228.282 491.005 229.026 495.118Z" fill="white"/>
<path d="M228.99 606.638C228.671 611.46 226.224 614.332 221.26 614.368C216.934 614.368 214.204 611.921 213.849 607.666C213.459 602.844 215.87 599.617 220.834 599.298C225.763 598.978 228.423 601.709 228.99 606.638Z" fill="white"/>
</g>
<g opacity="0.75">
<path d="M851.521 904.042C650.529 904.042 487 740.513 487 539.521C487 338.529 650.529 175 851.521 175V179.545C653.035 179.545 491.587 341.035 491.587 539.478C491.587 737.964 653.078 899.412 851.521 899.412C911.496 899.412 970.876 884.376 1023.21 855.918L1025.37 859.91C972.363 888.836 912.218 904.042 851.521 904.042Z" fill="#37474F"/>
<path d="M679.03 820.111C580.828 759.626 522.212 654.713 522.212 539.521H531.345C531.345 651.527 588.346 753.51 683.83 812.338L679.03 820.111Z" fill="#37474F"/>
<path d="M851.522 868.873C815.418 868.873 779.951 863.054 746.056 851.628L748.987 843.006C781.948 854.134 816.437 859.783 851.564 859.783C1016.49 859.783 1153.48 736.223 1170.08 572.354L1179.17 573.289C1162.01 741.745 1021.17 868.873 851.522 868.873Z" fill="#37474F"/>
<path d="M1167.62 488.382C1155.69 414.093 1117.54 346.005 1060.16 296.692C1002.18 246.826 928.063 219.387 851.523 219.387C789.722 219.387 729.747 237.014 678.055 270.4C617.826 309.307 571.868 367.922 548.634 435.458L540.011 432.484C563.882 363.038 611.157 302.766 673.086 262.754C726.264 228.434 787.938 210.297 851.481 210.297C930.23 210.297 1006.43 238.543 1066.06 289.811C1125.06 340.526 1164.31 410.567 1176.59 486.98L1167.62 488.382Z" fill="#37474F"/>
<path d="M851.522 777.381C720.359 777.381 613.662 670.684 613.662 539.521C613.662 486.427 630.779 436.222 663.103 394.341L670.323 399.906C639.232 440.214 622.794 488.466 622.794 539.521C622.794 665.629 725.414 768.249 851.522 768.249C873.906 768.249 896.036 765.021 917.231 758.65L919.864 767.4C897.777 774.068 874.756 777.381 851.522 777.381Z" fill="#37474F"/>
<path d="M1012.16 714.943L1006 708.232C1053.19 664.992 1080.25 603.531 1080.25 539.563C1080.25 494.54 1067.17 450.96 1042.45 413.54L1050.05 408.528C1075.79 447.435 1089.38 492.756 1089.38 539.606C1089.34 606.079 1061.22 670.004 1012.16 714.943Z" fill="#37474F"/>
<path d="M993.812 360.446C952.994 327.953 903.765 310.793 851.521 310.793C805.69 310.793 761.474 324.3 723.628 349.87L718.531 342.309C757.863 315.72 803.864 301.703 851.521 301.703C905.889 301.703 957.071 319.543 999.504 353.353L993.812 360.446Z" fill="#37474F"/>
<path d="M851.521 736.521C819.494 736.521 787.681 728.663 759.562 713.796L761.686 709.761C789.167 724.288 820.216 731.976 851.478 731.976C937.83 731.976 1014.12 673.912 1037.01 590.746L1041.38 591.978C1018.02 677.098 939.911 736.521 851.521 736.521Z" fill="#37474F"/>
<path d="M712.247 678.881C675.038 641.673 654.523 592.19 654.523 539.563C654.523 430.955 742.871 342.564 851.522 342.564C960.131 342.564 1048.52 430.955 1048.52 539.563H1043.98C1043.98 433.461 957.667 347.151 851.565 347.151C745.462 347.151 659.153 433.461 659.153 539.563C659.153 590.958 679.158 639.295 715.56 675.653L712.247 678.881Z" fill="#37474F"/>
<path d="M851.521 662.061C783.943 662.061 728.98 607.098 728.98 539.521C728.98 471.943 783.943 416.98 851.521 416.98V426.112C788.998 426.112 738.113 476.997 738.113 539.521C738.113 602.044 788.998 652.929 851.521 652.929C914.044 652.929 964.929 602.044 964.929 539.521H974.062C974.019 607.098 919.056 662.061 851.521 662.061Z" fill="#37474F"/>
<path d="M851.523 600.43C817.925 600.43 790.614 573.118 790.614 539.521H795.159C795.159 570.57 820.431 595.843 851.48 595.843C882.53 595.843 907.802 570.57 907.802 539.521C907.802 508.471 882.53 483.199 851.48 483.199C834.236 483.199 818.18 490.929 807.391 504.436L803.823 501.59C815.462 486.979 832.834 478.611 851.48 478.611C885.078 478.611 912.39 505.923 912.39 539.521C912.39 573.118 885.078 600.43 851.523 600.43Z" fill="#37474F"/>
</g>
<g opacity="0.75">
<path d="M639.662 42.8524L637.121 40.9095C670.927 -3.47693 688.801 -56.5016 688.801 -112.455C688.801 -199.136 645.192 -278.882 572.141 -325.78L573.874 -328.47C647.852 -281.005 691.999 -200.242 691.999 -112.455C691.999 -55.8141 673.886 -2.10202 639.662 42.8524Z" fill="#37474F"/>
<path d="M435.515 144.03C294.076 144.03 179 28.9539 179 -112.485C179 -253.924 294.076 -369 435.515 -369V-365.802C295.84 -365.802 182.228 -252.16 182.228 -112.515C182.228 27.1605 295.869 140.772 435.515 140.772C477.72 140.772 519.506 130.191 556.33 110.165L557.854 112.974C520.552 133.329 478.228 144.03 435.515 144.03Z" fill="#37474F"/>
<path d="M314.133 84.9672C245.028 42.404 203.78 -31.424 203.78 -112.485H210.206C210.206 -33.6657 250.318 38.0999 317.511 79.4974L314.133 84.9672Z" fill="#37474F"/>
<path d="M435.516 119.281C410.11 119.281 385.152 115.186 361.3 107.146L363.362 101.078C386.557 108.91 410.827 112.885 435.546 112.885C551.609 112.885 648.004 25.9353 659.691 -89.3799L666.087 -88.7223C654.011 29.821 554.897 119.281 435.516 119.281Z" fill="#37474F"/>
<path d="M435.516 54.8985C343.216 54.8985 268.132 -20.1849 268.132 -112.485C268.132 -149.847 280.178 -185.177 302.924 -214.648L308.005 -210.733C286.126 -182.367 274.559 -148.412 274.559 -112.485C274.559 -23.7418 346.773 48.4722 435.516 48.4722C451.268 48.4722 466.84 46.2006 481.755 41.7171L483.608 47.8744C468.066 52.5671 451.865 54.8985 435.516 54.8985Z" fill="#37474F"/>
<path d="M548.559 10.9601L544.225 6.23747C577.433 -24.1904 596.473 -67.4411 596.473 -112.455C596.473 -144.139 587.266 -174.806 569.871 -201.139L575.221 -204.666C593.334 -177.286 602.899 -145.394 602.899 -112.425C602.869 -65.6477 583.082 -20.6634 548.559 10.9601Z" fill="#37474F"/>
<path d="M435.515 26.1441C412.978 26.1441 390.59 20.6145 370.803 10.153L372.298 7.31352C391.636 17.5359 413.486 22.9459 435.485 22.9459C496.251 22.9459 549.933 -17.9136 566.044 -76.438L569.123 -75.5712C552.683 -15.6718 497.716 26.1441 435.515 26.1441Z" fill="#37474F"/>
</g>
</g>
<defs>
<clipPath id="clip0_515_273">
<rect width="1011" height="637.5" rx="44" fill="white"/>
</clipPath>
</defs>
</svg>
