<svg width="1011" height="638" viewBox="0 0 1011 638" fill="none" xmlns="http://www.w3.org/2000/svg">
<g clip-path="url(#clip0_535_186)">
<rect width="1011" height="638" rx="50" fill="#333333"/>
<path d="M15.5864 48.993L2.61348 26.5232L15.5864 4.05344H41.5322L54.5052 26.5232L41.5322 48.993H15.5864Z" stroke="#A28800"/>
<path d="M68.6328 48.993L55.6599 26.5232L68.6328 4.05344H94.5786L107.552 26.5232L94.5786 48.993H68.6328Z" stroke="#A28800"/>
<path d="M121.679 48.993L108.706 26.5232L121.679 4.05344H147.625L160.598 26.5232L147.625 48.993H121.679Z" stroke="#A28800"/>
<path d="M174.726 48.993L161.753 26.5232L174.726 4.05344H200.671L213.644 26.5232L200.671 48.993H174.726Z" stroke="#A28800"/>
<path d="M227.772 48.993L214.799 26.5232L227.772 4.05344H253.718L266.691 26.5232L253.718 48.993H227.772Z" stroke="#A28800"/>
<path d="M280.818 48.993L267.845 26.5232L280.818 4.05344H306.764L319.737 26.5232L306.764 48.993H280.818Z" stroke="#A28800"/>
<path d="M333.865 48.993L320.892 26.5232L333.865 4.05344H359.811L372.783 26.5232L359.811 48.993H333.865Z" stroke="#A28800"/>
<path d="M386.911 48.993L373.938 26.5232L386.911 4.05344H412.857L425.83 26.5232L412.857 48.993H386.911Z" stroke="#A28800"/>
<path d="M439.957 48.993L426.985 26.5232L439.957 4.05344H465.903L478.876 26.5232L465.903 48.993H439.957Z" stroke="#A28800"/>
<path d="M493.004 48.993L480.031 26.5232L493.004 4.05344H518.95L531.923 26.5232L518.95 48.993H493.004Z" stroke="#A28800"/>
<path d="M546.05 48.993L533.077 26.5232L546.05 4.05344H571.996L584.969 26.5232L571.996 48.993H546.05Z" stroke="#A28800"/>
<path d="M599.097 48.993L586.124 26.5232L599.097 4.05344H625.042L638.015 26.5232L625.042 48.993H599.097Z" stroke="#A28800"/>
<path d="M652.143 48.993L639.17 26.5232L652.143 4.05344H678.089L691.062 26.5232L678.089 48.993H652.143Z" stroke="#A28800"/>
<path d="M705.189 48.993L692.217 26.5232L705.189 4.05344H731.135L744.108 26.5232L731.135 48.993H705.189Z" stroke="#A28800"/>
<path d="M758.236 48.993L745.263 26.5232L758.236 4.05344H784.182L797.155 26.5232L784.182 48.993H758.236Z" stroke="#A28800"/>
<path d="M811.282 48.993L798.309 26.5232L811.282 4.05344H837.228L850.201 26.5232L837.228 48.993H811.282Z" stroke="#A28800"/>
<path d="M864.329 48.993L851.356 26.5232L864.329 4.05344H890.274L903.247 26.5232L890.274 48.993H864.329Z" stroke="#A28800"/>
<path d="M917.375 48.993L904.402 26.5232L917.375 4.05344H943.321L956.294 26.5232L943.321 48.993H917.375Z" stroke="#A28800"/>
<path d="M970.421 48.993L957.448 26.5232L970.421 4.05344H996.367L1009.34 26.5232L996.367 48.993H970.421Z" stroke="#A28800"/>
<path d="M1023.47 48.993L1010.49 26.5232L1023.47 4.05344H1049.41L1062.39 26.5232L1049.41 48.993H1023.47Z" stroke="#A28800"/>
<path d="M15.5864 102.039L2.61348 79.5696L15.5864 57.0998H41.5322L54.5052 79.5696L41.5322 102.039H15.5864Z" stroke="#A28800"/>
<path d="M68.6328 102.039L55.6599 79.5696L68.6328 57.0998H94.5786L107.552 79.5696L94.5786 102.039H68.6328Z" stroke="#A28800"/>
<path d="M121.679 102.039L108.706 79.5696L121.679 57.0998H147.625L160.598 79.5696L147.625 102.039H121.679Z" stroke="#A28800"/>
<path d="M174.726 102.039L161.753 79.5696L174.726 57.0998H200.671L213.644 79.5696L200.671 102.039H174.726Z" stroke="#A28800"/>
<path d="M227.772 102.039L214.799 79.5696L227.772 57.0998H253.718L266.691 79.5696L253.718 102.039H227.772Z" stroke="#A28800"/>
<path d="M280.818 102.039L267.845 79.5696L280.818 57.0998H306.764L319.737 79.5696L306.764 102.039H280.818Z" stroke="#A28800"/>
<path d="M333.865 102.039L320.892 79.5696L333.865 57.0998H359.811L372.783 79.5696L359.811 102.039H333.865Z" stroke="#A28800"/>
<path d="M386.911 102.039L373.938 79.5696L386.911 57.0998H412.857L425.83 79.5696L412.857 102.039H386.911Z" stroke="#A28800"/>
<path d="M439.957 102.039L426.985 79.5696L439.957 57.0998H465.903L478.876 79.5696L465.903 102.039H439.957Z" stroke="#A28800"/>
<path d="M493.004 102.039L480.031 79.5696L493.004 57.0998H518.95L531.923 79.5696L518.95 102.039H493.004Z" stroke="#A28800"/>
<path d="M546.05 102.039L533.077 79.5696L546.05 57.0998H571.996L584.969 79.5696L571.996 102.039H546.05Z" stroke="#A28800"/>
<path d="M599.097 102.039L586.124 79.5696L599.097 57.0998H625.042L638.015 79.5696L625.042 102.039H599.097Z" stroke="#A28800"/>
<path d="M652.143 102.039L639.17 79.5696L652.143 57.0998H678.089L691.062 79.5696L678.089 102.039H652.143Z" stroke="#A28800"/>
<path d="M705.189 102.039L692.217 79.5696L705.189 57.0998H731.135L744.108 79.5696L731.135 102.039H705.189Z" stroke="#A28800"/>
<path d="M758.236 102.039L745.263 79.5696L758.236 57.0998H784.182L797.155 79.5696L784.182 102.039H758.236Z" stroke="#A28800"/>
<path d="M811.282 102.039L798.309 79.5696L811.282 57.0998H837.228L850.201 79.5696L837.228 102.039H811.282Z" stroke="#A28800"/>
<path d="M864.329 102.039L851.356 79.5696L864.329 57.0998H890.274L903.247 79.5696L890.274 102.039H864.329Z" stroke="#A28800"/>
<path d="M917.375 102.039L904.402 79.5696L917.375 57.0998H943.321L956.294 79.5696L943.321 102.039H917.375Z" stroke="#A28800"/>
<path d="M970.421 102.039L957.448 79.5696L970.421 57.0998H996.367L1009.34 79.5696L996.367 102.039H970.421Z" stroke="#A28800"/>
<path d="M1023.47 102.039L1010.49 79.5696L1023.47 57.0998H1049.41L1062.39 79.5696L1049.41 102.039H1023.47Z" stroke="#A28800"/>
<path d="M15.5864 155.086L2.61348 132.616L15.5864 110.146H41.5322L54.5052 132.616L41.5322 155.086H15.5864Z" stroke="#A28800"/>
<path d="M68.6328 155.086L55.6599 132.616L68.6328 110.146H94.5786L107.552 132.616L94.5786 155.086H68.6328Z" stroke="#A28800"/>
<path d="M121.679 155.086L108.706 132.616L121.679 110.146H147.625L160.598 132.616L147.625 155.086H121.679Z" stroke="#A28800"/>
<path d="M174.726 155.086L161.753 132.616L174.726 110.146H200.671L213.644 132.616L200.671 155.086H174.726Z" stroke="#A28800"/>
<path d="M227.772 155.086L214.799 132.616L227.772 110.146H253.718L266.691 132.616L253.718 155.086H227.772Z" stroke="#A28800"/>
<path d="M280.818 155.086L267.845 132.616L280.818 110.146H306.764L319.737 132.616L306.764 155.086H280.818Z" stroke="#A28800"/>
<path d="M333.865 155.086L320.892 132.616L333.865 110.146H359.811L372.783 132.616L359.811 155.086H333.865Z" stroke="#A28800"/>
<path d="M386.911 155.086L373.938 132.616L386.911 110.146H412.857L425.83 132.616L412.857 155.086H386.911Z" stroke="#A28800"/>
<path d="M439.957 155.086L426.985 132.616L439.957 110.146H465.903L478.876 132.616L465.903 155.086H439.957Z" stroke="#A28800"/>
<path d="M493.004 155.086L480.031 132.616L493.004 110.146H518.95L531.923 132.616L518.95 155.086H493.004Z" stroke="#A28800"/>
<path d="M546.05 155.086L533.077 132.616L546.05 110.146H571.996L584.969 132.616L571.996 155.086H546.05Z" stroke="#A28800"/>
<path d="M599.097 155.086L586.124 132.616L599.097 110.146H625.042L638.015 132.616L625.042 155.086H599.097Z" stroke="#A28800"/>
<path d="M652.143 155.086L639.17 132.616L652.143 110.146H678.089L691.062 132.616L678.089 155.086H652.143Z" stroke="#A28800"/>
<path d="M705.189 155.086L692.217 132.616L705.189 110.146H731.135L744.108 132.616L731.135 155.086H705.189Z" stroke="#A28800"/>
<path d="M758.236 155.086L745.263 132.616L758.236 110.146H784.182L797.155 132.616L784.182 155.086H758.236Z" stroke="#A28800"/>
<path d="M811.282 155.086L798.309 132.616L811.282 110.146H837.228L850.201 132.616L837.228 155.086H811.282Z" stroke="#A28800"/>
<path d="M864.329 155.086L851.356 132.616L864.329 110.146H890.274L903.247 132.616L890.274 155.086H864.329Z" stroke="#A28800"/>
<path d="M917.375 155.086L904.402 132.616L917.375 110.146H943.321L956.294 132.616L943.321 155.086H917.375Z" stroke="#A28800"/>
<path d="M970.421 155.086L957.448 132.616L970.421 110.146H996.367L1009.34 132.616L996.367 155.086H970.421Z" stroke="#A28800"/>
<path d="M1023.47 155.086L1010.49 132.616L1023.47 110.146H1049.41L1062.39 132.616L1049.41 155.086H1023.47Z" stroke="#A28800"/>
<path d="M15.5864 208.132L2.61348 185.662L15.5864 163.193H41.5322L54.5052 185.662L41.5322 208.132H15.5864Z" stroke="#A28800"/>
<path d="M68.6328 208.132L55.6599 185.662L68.6328 163.193H94.5786L107.552 185.662L94.5786 208.132H68.6328Z" stroke="#A28800"/>
<path d="M121.679 208.132L108.706 185.662L121.679 163.193H147.625L160.598 185.662L147.625 208.132H121.679Z" stroke="#A28800"/>
<path d="M174.726 208.132L161.753 185.662L174.726 163.193H200.671L213.644 185.662L200.671 208.132H174.726Z" stroke="#A28800"/>
<path d="M227.772 208.132L214.799 185.662L227.772 163.193H253.718L266.691 185.662L253.718 208.132H227.772Z" stroke="#A28800"/>
<path d="M280.818 208.132L267.845 185.662L280.818 163.193H306.764L319.737 185.662L306.764 208.132H280.818Z" stroke="#A28800"/>
<path d="M333.865 208.132L320.892 185.662L333.865 163.193H359.811L372.783 185.662L359.811 208.132H333.865Z" stroke="#A28800"/>
<path d="M386.911 208.132L373.938 185.662L386.911 163.193H412.857L425.83 185.662L412.857 208.132H386.911Z" stroke="#A28800"/>
<path d="M439.957 208.132L426.985 185.662L439.957 163.193H465.903L478.876 185.662L465.903 208.132H439.957Z" stroke="#A28800"/>
<path d="M493.004 208.132L480.031 185.662L493.004 163.193H518.95L531.923 185.662L518.95 208.132H493.004Z" stroke="#A28800"/>
<path d="M546.05 208.132L533.077 185.662L546.05 163.193H571.996L584.969 185.662L571.996 208.132H546.05Z" stroke="#A28800"/>
<path d="M599.097 208.132L586.124 185.662L599.097 163.193H625.042L638.015 185.662L625.042 208.132H599.097Z" stroke="#A28800"/>
<path d="M652.143 208.132L639.17 185.662L652.143 163.193H678.089L691.062 185.662L678.089 208.132H652.143Z" stroke="#A28800"/>
<path d="M705.189 208.132L692.217 185.662L705.189 163.193H731.135L744.108 185.662L731.135 208.132H705.189Z" stroke="#A28800"/>
<path d="M758.236 208.132L745.263 185.662L758.236 163.193H784.182L797.155 185.662L784.182 208.132H758.236Z" stroke="#A28800"/>
<path d="M811.282 208.132L798.309 185.662L811.282 163.193H837.228L850.201 185.662L837.228 208.132H811.282Z" stroke="#A28800"/>
<path d="M864.329 208.132L851.356 185.662L864.329 163.193H890.274L903.247 185.662L890.274 208.132H864.329Z" stroke="#A28800"/>
<path d="M917.375 208.132L904.402 185.662L917.375 163.193H943.321L956.294 185.662L943.321 208.132H917.375Z" stroke="#A28800"/>
<path d="M970.421 208.132L957.448 185.662L970.421 163.193H996.367L1009.34 185.662L996.367 208.132H970.421Z" stroke="#A28800"/>
<path d="M1023.47 208.132L1010.49 185.662L1023.47 163.193H1049.41L1062.39 185.662L1049.41 208.132H1023.47Z" stroke="#A28800"/>
<path d="M15.5864 261.178L2.61348 238.709L15.5864 216.239H41.5322L54.5052 238.709L41.5322 261.178H15.5864Z" stroke="#A28800"/>
<path d="M68.6328 261.178L55.6599 238.709L68.6328 216.239H94.5786L107.552 238.709L94.5786 261.178H68.6328Z" stroke="#A28800"/>
<path d="M121.679 261.178L108.706 238.709L121.679 216.239H147.625L160.598 238.709L147.625 261.178H121.679Z" stroke="#A28800"/>
<path d="M174.726 261.178L161.753 238.709L174.726 216.239H200.671L213.644 238.709L200.671 261.178H174.726Z" stroke="#A28800"/>
<path d="M227.772 261.178L214.799 238.709L227.772 216.239H253.718L266.691 238.709L253.718 261.178H227.772Z" stroke="#A28800"/>
<path d="M280.818 261.178L267.845 238.709L280.818 216.239H306.764L319.737 238.709L306.764 261.178H280.818Z" stroke="#A28800"/>
<path d="M333.865 261.178L320.892 238.709L333.865 216.239H359.811L372.783 238.709L359.811 261.178H333.865Z" stroke="#A28800"/>
<path d="M386.911 261.178L373.938 238.709L386.911 216.239H412.857L425.83 238.709L412.857 261.178H386.911Z" stroke="#A28800"/>
<path d="M439.957 261.178L426.985 238.709L439.957 216.239H465.903L478.876 238.709L465.903 261.178H439.957Z" stroke="#A28800"/>
<path d="M493.004 261.178L480.031 238.709L493.004 216.239H518.95L531.923 238.709L518.95 261.178H493.004Z" stroke="#A28800"/>
<path d="M546.05 261.178L533.077 238.709L546.05 216.239H571.996L584.969 238.709L571.996 261.178H546.05Z" stroke="#A28800"/>
<path d="M599.097 261.178L586.124 238.709L599.097 216.239H625.042L638.015 238.709L625.042 261.178H599.097Z" stroke="#A28800"/>
<path d="M652.143 261.178L639.17 238.709L652.143 216.239H678.089L691.062 238.709L678.089 261.178H652.143Z" stroke="#A28800"/>
<path d="M705.189 261.178L692.217 238.709L705.189 216.239H731.135L744.108 238.709L731.135 261.178H705.189Z" stroke="#A28800"/>
<path d="M758.236 261.178L745.263 238.709L758.236 216.239H784.182L797.155 238.709L784.182 261.178H758.236Z" stroke="#A28800"/>
<path d="M811.282 261.178L798.309 238.709L811.282 216.239H837.228L850.201 238.709L837.228 261.178H811.282Z" stroke="#A28800"/>
<path d="M864.329 261.178L851.356 238.709L864.329 216.239H890.274L903.247 238.709L890.274 261.178H864.329Z" stroke="#A28800"/>
<path d="M917.375 261.178L904.402 238.709L917.375 216.239H943.321L956.294 238.709L943.321 261.178H917.375Z" stroke="#A28800"/>
<path d="M970.421 261.178L957.448 238.709L970.421 216.239H996.367L1009.34 238.709L996.367 261.178H970.421Z" stroke="#A28800"/>
<path d="M1023.47 261.178L1010.49 238.709L1023.47 216.239H1049.41L1062.39 238.709L1049.41 261.178H1023.47Z" stroke="#A28800"/>
<path d="M15.5864 314.225L2.61348 291.755L15.5864 269.285H41.5322L54.5052 291.755L41.5322 314.225H15.5864Z" stroke="#A28800"/>
<path d="M68.6328 314.225L55.6599 291.755L68.6328 269.285H94.5786L107.552 291.755L94.5786 314.225H68.6328Z" stroke="#A28800"/>
<path d="M121.679 314.225L108.706 291.755L121.679 269.285H147.625L160.598 291.755L147.625 314.225H121.679Z" stroke="#A28800"/>
<path d="M174.726 314.225L161.753 291.755L174.726 269.285H200.671L213.644 291.755L200.671 314.225H174.726Z" stroke="#A28800"/>
<path d="M227.772 314.225L214.799 291.755L227.772 269.285H253.718L266.691 291.755L253.718 314.225H227.772Z" stroke="#A28800"/>
<path d="M280.818 314.225L267.845 291.755L280.818 269.285H306.764L319.737 291.755L306.764 314.225H280.818Z" stroke="#A28800"/>
<path d="M333.865 314.225L320.892 291.755L333.865 269.285H359.811L372.783 291.755L359.811 314.225H333.865Z" stroke="#A28800"/>
<path d="M386.911 314.225L373.938 291.755L386.911 269.285H412.857L425.83 291.755L412.857 314.225H386.911Z" stroke="#A28800"/>
<path d="M439.957 314.225L426.985 291.755L439.957 269.285H465.903L478.876 291.755L465.903 314.225H439.957Z" stroke="#A28800"/>
<path d="M493.004 314.225L480.031 291.755L493.004 269.285H518.95L531.923 291.755L518.95 314.225H493.004Z" stroke="#A28800"/>
<path d="M546.05 314.225L533.077 291.755L546.05 269.285H571.996L584.969 291.755L571.996 314.225H546.05Z" stroke="#A28800"/>
<path d="M599.097 314.225L586.124 291.755L599.097 269.285H625.042L638.015 291.755L625.042 314.225H599.097Z" stroke="#A28800"/>
<path d="M652.143 314.225L639.17 291.755L652.143 269.285H678.089L691.062 291.755L678.089 314.225H652.143Z" stroke="#A28800"/>
<path d="M705.189 314.225L692.217 291.755L705.189 269.285H731.135L744.108 291.755L731.135 314.225H705.189Z" stroke="#A28800"/>
<path d="M758.236 314.225L745.263 291.755L758.236 269.285H784.182L797.155 291.755L784.182 314.225H758.236Z" stroke="#A28800"/>
<path d="M811.282 314.225L798.309 291.755L811.282 269.285H837.228L850.201 291.755L837.228 314.225H811.282Z" stroke="#A28800"/>
<path d="M864.329 314.225L851.356 291.755L864.329 269.285H890.274L903.247 291.755L890.274 314.225H864.329Z" stroke="#A28800"/>
<path d="M917.375 314.225L904.402 291.755L917.375 269.285H943.321L956.294 291.755L943.321 314.225H917.375Z" stroke="#A28800"/>
<path d="M970.421 314.225L957.448 291.755L970.421 269.285H996.367L1009.34 291.755L996.367 314.225H970.421Z" stroke="#A28800"/>
<path d="M1023.47 314.225L1010.49 291.755L1023.47 269.285H1049.41L1062.39 291.755L1049.41 314.225H1023.47Z" stroke="#A28800"/>
<path d="M15.5864 367.271L2.61348 344.802L15.5864 322.332H41.5322L54.5052 344.802L41.5322 367.271H15.5864Z" stroke="#A28800"/>
<path d="M68.6328 367.271L55.6599 344.802L68.6328 322.332H94.5786L107.552 344.802L94.5786 367.271H68.6328Z" stroke="#A28800"/>
<path d="M121.679 367.271L108.706 344.802L121.679 322.332H147.625L160.598 344.802L147.625 367.271H121.679Z" stroke="#A28800"/>
<path d="M174.726 367.271L161.753 344.802L174.726 322.332H200.671L213.644 344.802L200.671 367.271H174.726Z" stroke="#A28800"/>
<path d="M227.772 367.271L214.799 344.802L227.772 322.332H253.718L266.691 344.802L253.718 367.271H227.772Z" stroke="#A28800"/>
<path d="M280.818 367.271L267.845 344.802L280.818 322.332H306.764L319.737 344.802L306.764 367.271H280.818Z" stroke="#A28800"/>
<path d="M333.865 367.271L320.892 344.802L333.865 322.332H359.811L372.783 344.802L359.811 367.271H333.865Z" stroke="#A28800"/>
<path d="M386.911 367.271L373.938 344.802L386.911 322.332H412.857L425.83 344.802L412.857 367.271H386.911Z" stroke="#A28800"/>
<path d="M439.957 367.271L426.985 344.802L439.957 322.332H465.903L478.876 344.802L465.903 367.271H439.957Z" stroke="#A28800"/>
<path d="M493.004 367.271L480.031 344.802L493.004 322.332H518.95L531.923 344.802L518.95 367.271H493.004Z" stroke="#A28800"/>
<path d="M546.05 367.271L533.077 344.802L546.05 322.332H571.996L584.969 344.802L571.996 367.271H546.05Z" stroke="#A28800"/>
<path d="M599.097 367.271L586.124 344.802L599.097 322.332H625.042L638.015 344.802L625.042 367.271H599.097Z" stroke="#A28800"/>
<path d="M652.143 367.271L639.17 344.802L652.143 322.332H678.089L691.062 344.802L678.089 367.271H652.143Z" stroke="#A28800"/>
<path d="M705.189 367.271L692.217 344.802L705.189 322.332H731.135L744.108 344.802L731.135 367.271H705.189Z" stroke="#A28800"/>
<path d="M758.236 367.271L745.263 344.802L758.236 322.332H784.182L797.155 344.802L784.182 367.271H758.236Z" stroke="#A28800"/>
<path d="M811.282 367.271L798.309 344.802L811.282 322.332H837.228L850.201 344.802L837.228 367.271H811.282Z" stroke="#A28800"/>
<path d="M864.329 367.271L851.356 344.802L864.329 322.332H890.274L903.247 344.802L890.274 367.271H864.329Z" stroke="#A28800"/>
<path d="M917.375 367.271L904.402 344.802L917.375 322.332H943.321L956.294 344.802L943.321 367.271H917.375Z" stroke="#A28800"/>
<path d="M970.421 367.271L957.448 344.802L970.421 322.332H996.367L1009.34 344.802L996.367 367.271H970.421Z" stroke="#A28800"/>
<path d="M1023.47 367.271L1010.49 344.802L1023.47 322.332H1049.41L1062.39 344.802L1049.41 367.271H1023.47Z" stroke="#A28800"/>
<path d="M15.5864 420.318L2.61348 397.848L15.5864 375.378H41.5322L54.5052 397.848L41.5322 420.318H15.5864Z" stroke="#A28800"/>
<path d="M68.6328 420.318L55.6599 397.848L68.6328 375.378H94.5786L107.552 397.848L94.5786 420.318H68.6328Z" stroke="#A28800"/>
<path d="M121.679 420.318L108.706 397.848L121.679 375.378H147.625L160.598 397.848L147.625 420.318H121.679Z" stroke="#A28800"/>
<path d="M174.726 420.318L161.753 397.848L174.726 375.378H200.671L213.644 397.848L200.671 420.318H174.726Z" stroke="#A28800"/>
<path d="M227.772 420.318L214.799 397.848L227.772 375.378H253.718L266.691 397.848L253.718 420.318H227.772Z" stroke="#A28800"/>
<path d="M280.818 420.318L267.845 397.848L280.818 375.378H306.764L319.737 397.848L306.764 420.318H280.818Z" stroke="#A28800"/>
<path d="M333.865 420.318L320.892 397.848L333.865 375.378H359.811L372.783 397.848L359.811 420.318H333.865Z" stroke="#A28800"/>
<path d="M386.911 420.318L373.938 397.848L386.911 375.378H412.857L425.83 397.848L412.857 420.318H386.911Z" stroke="#A28800"/>
<path d="M439.957 420.318L426.985 397.848L439.957 375.378H465.903L478.876 397.848L465.903 420.318H439.957Z" stroke="#A28800"/>
<path d="M493.004 420.318L480.031 397.848L493.004 375.378H518.95L531.923 397.848L518.95 420.318H493.004Z" stroke="#A28800"/>
<path d="M546.05 420.318L533.077 397.848L546.05 375.378H571.996L584.969 397.848L571.996 420.318H546.05Z" stroke="#A28800"/>
<path d="M599.097 420.318L586.124 397.848L599.097 375.378H625.042L638.015 397.848L625.042 420.318H599.097Z" stroke="#A28800"/>
<path d="M652.143 420.318L639.17 397.848L652.143 375.378H678.089L691.062 397.848L678.089 420.318H652.143Z" stroke="#A28800"/>
<path d="M705.189 420.318L692.217 397.848L705.189 375.378H731.135L744.108 397.848L731.135 420.318H705.189Z" stroke="#A28800"/>
<path d="M758.236 420.318L745.263 397.848L758.236 375.378H784.182L797.155 397.848L784.182 420.318H758.236Z" stroke="#A28800"/>
<path d="M811.282 420.318L798.309 397.848L811.282 375.378H837.228L850.201 397.848L837.228 420.318H811.282Z" stroke="#A28800"/>
<path d="M864.329 420.318L851.356 397.848L864.329 375.378H890.274L903.247 397.848L890.274 420.318H864.329Z" stroke="#A28800"/>
<path d="M917.375 420.318L904.402 397.848L917.375 375.378H943.321L956.294 397.848L943.321 420.318H917.375Z" stroke="#A28800"/>
<path d="M970.421 420.318L957.448 397.848L970.421 375.378H996.367L1009.34 397.848L996.367 420.318H970.421Z" stroke="#A28800"/>
<path d="M1023.47 420.318L1010.49 397.848L1023.47 375.378H1049.41L1062.39 397.848L1049.41 420.318H1023.47Z" stroke="#A28800"/>
<path d="M15.5864 473.364L2.61348 450.894L15.5864 428.425H41.5322L54.5052 450.894L41.5322 473.364H15.5864Z" stroke="#A28800"/>
<path d="M68.6328 473.364L55.6599 450.894L68.6328 428.425H94.5786L107.552 450.894L94.5786 473.364H68.6328Z" stroke="#A28800"/>
<path d="M121.679 473.364L108.706 450.894L121.679 428.425H147.625L160.598 450.894L147.625 473.364H121.679Z" stroke="#A28800"/>
<path d="M174.726 473.364L161.753 450.894L174.726 428.425H200.671L213.644 450.894L200.671 473.364H174.726Z" stroke="#A28800"/>
<path d="M227.772 473.364L214.799 450.894L227.772 428.425H253.718L266.691 450.894L253.718 473.364H227.772Z" stroke="#A28800"/>
<path d="M280.818 473.364L267.845 450.894L280.818 428.425H306.764L319.737 450.894L306.764 473.364H280.818Z" stroke="#A28800"/>
<path d="M333.865 473.364L320.892 450.894L333.865 428.425H359.811L372.783 450.894L359.811 473.364H333.865Z" stroke="#A28800"/>
<path d="M386.911 473.364L373.938 450.894L386.911 428.425H412.857L425.83 450.894L412.857 473.364H386.911Z" stroke="#A28800"/>
<path d="M439.957 473.364L426.985 450.894L439.957 428.425H465.903L478.876 450.894L465.903 473.364H439.957Z" stroke="#A28800"/>
<path d="M493.004 473.364L480.031 450.894L493.004 428.425H518.95L531.923 450.894L518.95 473.364H493.004Z" stroke="#A28800"/>
<path d="M546.05 473.364L533.077 450.894L546.05 428.425H571.996L584.969 450.894L571.996 473.364H546.05Z" stroke="#A28800"/>
<path d="M599.097 473.364L586.124 450.894L599.097 428.425H625.042L638.015 450.894L625.042 473.364H599.097Z" stroke="#A28800"/>
<path d="M652.143 473.364L639.17 450.894L652.143 428.425H678.089L691.062 450.894L678.089 473.364H652.143Z" stroke="#A28800"/>
<path d="M705.189 473.364L692.217 450.894L705.189 428.425H731.135L744.108 450.894L731.135 473.364H705.189Z" stroke="#A28800"/>
<path d="M758.236 473.364L745.263 450.894L758.236 428.425H784.182L797.155 450.894L784.182 473.364H758.236Z" stroke="#A28800"/>
<path d="M811.282 473.364L798.309 450.894L811.282 428.425H837.228L850.201 450.894L837.228 473.364H811.282Z" stroke="#A28800"/>
<path d="M864.329 473.364L851.356 450.894L864.329 428.425H890.274L903.247 450.894L890.274 473.364H864.329Z" stroke="#A28800"/>
<path d="M917.375 473.364L904.402 450.894L917.375 428.425H943.321L956.294 450.894L943.321 473.364H917.375Z" stroke="#A28800"/>
<path d="M970.421 473.364L957.448 450.894L970.421 428.425H996.367L1009.34 450.894L996.367 473.364H970.421Z" stroke="#A28800"/>
<path d="M1023.47 473.364L1010.49 450.894L1023.47 428.425H1049.41L1062.39 450.894L1049.41 473.364H1023.47Z" stroke="#A28800"/>
<path d="M15.5864 526.41L2.61348 503.941L15.5864 481.471H41.5322L54.5052 503.941L41.5322 526.41H15.5864Z" stroke="#A28800"/>
<path d="M68.6328 526.41L55.6599 503.941L68.6328 481.471H94.5786L107.552 503.941L94.5786 526.41H68.6328Z" stroke="#A28800"/>
<path d="M121.679 526.41L108.706 503.941L121.679 481.471H147.625L160.598 503.941L147.625 526.41H121.679Z" stroke="#A28800"/>
<path d="M174.726 526.41L161.753 503.941L174.726 481.471H200.671L213.644 503.941L200.671 526.41H174.726Z" stroke="#A28800"/>
<path d="M227.772 526.41L214.799 503.941L227.772 481.471H253.718L266.691 503.941L253.718 526.41H227.772Z" stroke="#A28800"/>
<path d="M280.818 526.41L267.845 503.941L280.818 481.471H306.764L319.737 503.941L306.764 526.41H280.818Z" stroke="#A28800"/>
<path d="M333.865 526.41L320.892 503.941L333.865 481.471H359.811L372.783 503.941L359.811 526.41H333.865Z" stroke="#A28800"/>
<path d="M386.911 526.41L373.938 503.941L386.911 481.471H412.857L425.83 503.941L412.857 526.41H386.911Z" stroke="#A28800"/>
<path d="M439.957 526.41L426.985 503.941L439.957 481.471H465.903L478.876 503.941L465.903 526.41H439.957Z" stroke="#A28800"/>
<path d="M493.004 526.41L480.031 503.941L493.004 481.471H518.95L531.923 503.941L518.95 526.41H493.004Z" stroke="#A28800"/>
<path d="M546.05 526.41L533.077 503.941L546.05 481.471H571.996L584.969 503.941L571.996 526.41H546.05Z" stroke="#A28800"/>
<path d="M599.097 526.41L586.124 503.941L599.097 481.471H625.042L638.015 503.941L625.042 526.41H599.097Z" stroke="#A28800"/>
<path d="M652.143 526.41L639.17 503.941L652.143 481.471H678.089L691.062 503.941L678.089 526.41H652.143Z" stroke="#A28800"/>
<path d="M705.189 526.41L692.217 503.941L705.189 481.471H731.135L744.108 503.941L731.135 526.41H705.189Z" stroke="#A28800"/>
<path d="M758.236 526.41L745.263 503.941L758.236 481.471H784.182L797.155 503.941L784.182 526.41H758.236Z" stroke="#A28800"/>
<path d="M811.282 526.41L798.309 503.941L811.282 481.471H837.228L850.201 503.941L837.228 526.41H811.282Z" stroke="#A28800"/>
<path d="M864.329 526.41L851.356 503.941L864.329 481.471H890.274L903.247 503.941L890.274 526.41H864.329Z" stroke="#A28800"/>
<path d="M917.375 526.41L904.402 503.941L917.375 481.471H943.321L956.294 503.941L943.321 526.41H917.375Z" stroke="#A28800"/>
<path d="M970.421 526.41L957.448 503.941L970.421 481.471H996.367L1009.34 503.941L996.367 526.41H970.421Z" stroke="#A28800"/>
<path d="M1023.47 526.41L1010.49 503.941L1023.47 481.471H1049.41L1062.39 503.941L1049.41 526.41H1023.47Z" stroke="#A28800"/>
<path d="M15.5864 579.457L2.61348 556.987L15.5864 534.517H41.5322L54.5052 556.987L41.5322 579.457H15.5864Z" stroke="#A28800"/>
<path d="M68.6328 579.457L55.6599 556.987L68.6328 534.517H94.5786L107.552 556.987L94.5786 579.457H68.6328Z" stroke="#A28800"/>
<path d="M121.679 579.457L108.706 556.987L121.679 534.517H147.625L160.598 556.987L147.625 579.457H121.679Z" stroke="#A28800"/>
<path d="M174.726 579.457L161.753 556.987L174.726 534.517H200.671L213.644 556.987L200.671 579.457H174.726Z" stroke="#A28800"/>
<path d="M227.772 579.457L214.799 556.987L227.772 534.517H253.718L266.691 556.987L253.718 579.457H227.772Z" stroke="#A28800"/>
<path d="M280.818 579.457L267.845 556.987L280.818 534.517H306.764L319.737 556.987L306.764 579.457H280.818Z" stroke="#A28800"/>
<path d="M333.865 579.457L320.892 556.987L333.865 534.517H359.811L372.783 556.987L359.811 579.457H333.865Z" stroke="#A28800"/>
<path d="M386.911 579.457L373.938 556.987L386.911 534.517H412.857L425.83 556.987L412.857 579.457H386.911Z" stroke="#A28800"/>
<path d="M439.957 579.457L426.985 556.987L439.957 534.517H465.903L478.876 556.987L465.903 579.457H439.957Z" stroke="#A28800"/>
<path d="M493.004 579.457L480.031 556.987L493.004 534.517H518.95L531.923 556.987L518.95 579.457H493.004Z" stroke="#A28800"/>
<path d="M546.05 579.457L533.077 556.987L546.05 534.517H571.996L584.969 556.987L571.996 579.457H546.05Z" stroke="#A28800"/>
<path d="M599.097 579.457L586.124 556.987L599.097 534.517H625.042L638.015 556.987L625.042 579.457H599.097Z" stroke="#A28800"/>
<path d="M652.143 579.457L639.17 556.987L652.143 534.517H678.089L691.062 556.987L678.089 579.457H652.143Z" stroke="#A28800"/>
<path d="M705.189 579.457L692.217 556.987L705.189 534.517H731.135L744.108 556.987L731.135 579.457H705.189Z" stroke="#A28800"/>
<path d="M758.236 579.457L745.263 556.987L758.236 534.517H784.182L797.155 556.987L784.182 579.457H758.236Z" stroke="#A28800"/>
<path d="M811.282 579.457L798.309 556.987L811.282 534.517H837.228L850.201 556.987L837.228 579.457H811.282Z" stroke="#A28800"/>
<path d="M864.329 579.457L851.356 556.987L864.329 534.517H890.274L903.247 556.987L890.274 579.457H864.329Z" stroke="#A28800"/>
<path d="M917.375 579.457L904.402 556.987L917.375 534.517H943.321L956.294 556.987L943.321 579.457H917.375Z" stroke="#A28800"/>
<path d="M970.421 579.457L957.448 556.987L970.421 534.517H996.367L1009.34 556.987L996.367 579.457H970.421Z" stroke="#A28800"/>
<path d="M1023.47 579.457L1010.49 556.987L1023.47 534.517H1049.41L1062.39 556.987L1049.41 579.457H1023.47Z" stroke="#A28800"/>
<path d="M15.5864 632.503L2.61348 610.033L15.5864 587.564H41.5322L54.5052 610.033L41.5322 632.503H15.5864Z" stroke="#A28800"/>
<path d="M68.6328 632.503L55.6599 610.033L68.6328 587.564H94.5786L107.552 610.033L94.5786 632.503H68.6328Z" stroke="#A28800"/>
<path d="M121.679 632.503L108.706 610.033L121.679 587.564H147.625L160.598 610.033L147.625 632.503H121.679Z" stroke="#A28800"/>
<path d="M174.726 632.503L161.753 610.033L174.726 587.564H200.671L213.644 610.033L200.671 632.503H174.726Z" stroke="#A28800"/>
<path d="M227.772 632.503L214.799 610.033L227.772 587.564H253.718L266.691 610.033L253.718 632.503H227.772Z" stroke="#A28800"/>
<path d="M280.818 632.503L267.845 610.033L280.818 587.564H306.764L319.737 610.033L306.764 632.503H280.818Z" stroke="#A28800"/>
<path d="M333.865 632.503L320.892 610.033L333.865 587.564H359.811L372.783 610.033L359.811 632.503H333.865Z" stroke="#A28800"/>
<path d="M386.911 632.503L373.938 610.033L386.911 587.564H412.857L425.83 610.033L412.857 632.503H386.911Z" stroke="#A28800"/>
<path d="M439.957 632.503L426.985 610.033L439.957 587.564H465.903L478.876 610.033L465.903 632.503H439.957Z" stroke="#A28800"/>
<path d="M493.004 632.503L480.031 610.033L493.004 587.564H518.95L531.923 610.033L518.95 632.503H493.004Z" stroke="#A28800"/>
<path d="M546.05 632.503L533.077 610.033L546.05 587.564H571.996L584.969 610.033L571.996 632.503H546.05Z" stroke="#A28800"/>
<path d="M599.097 632.503L586.124 610.033L599.097 587.564H625.042L638.015 610.033L625.042 632.503H599.097Z" stroke="#A28800"/>
<path d="M652.143 632.503L639.17 610.033L652.143 587.564H678.089L691.062 610.033L678.089 632.503H652.143Z" stroke="#A28800"/>
<path d="M705.189 632.503L692.217 610.033L705.189 587.564H731.135L744.108 610.033L731.135 632.503H705.189Z" stroke="#A28800"/>
<path d="M758.236 632.503L745.263 610.033L758.236 587.564H784.182L797.155 610.033L784.182 632.503H758.236Z" stroke="#A28800"/>
<path d="M811.282 632.503L798.309 610.033L811.282 587.564H837.228L850.201 610.033L837.228 632.503H811.282Z" stroke="#A28800"/>
<path d="M864.329 632.503L851.356 610.033L864.329 587.564H890.274L903.247 610.033L890.274 632.503H864.329Z" stroke="#A28800"/>
<path d="M917.375 632.503L904.402 610.033L917.375 587.564H943.321L956.294 610.033L943.321 632.503H917.375Z" stroke="#A28800"/>
<path d="M970.421 632.503L957.448 610.033L970.421 587.564H996.367L1009.34 610.033L996.367 632.503H970.421Z" stroke="#A28800"/>
<path d="M1023.47 632.503L1010.49 610.033L1023.47 587.564H1049.41L1062.39 610.033L1049.41 632.503H1023.47Z" stroke="#A28800"/>
</g>
<defs>
<clipPath id="clip0_535_186">
<rect width="1011" height="638" rx="50" fill="white"/>
</clipPath>
</defs>
</svg>
