<svg width="360" height="800" viewBox="0 0 360 800" fill="none" xmlns="http://www.w3.org/2000/svg">
<g clip-path="url(#clip0_456_19)">
<rect width="360" height="800" fill="white"/>
<path d="M140.519 0H360V368C249.257 359.793 203.555 339.273 132 264.082L140.519 0Z" fill="#F4D3D3"/>
<path d="M0 0H359.527C359.527 12.0036 362.841 30.1323 359.527 36.9C350.097 56.1622 311.738 70.3093 296.111 81.8023C239.814 123.205 211.49 139.597 200.237 196.948C185.756 270.748 212.891 358.616 172.773 382.781C141.6 401.559 60.9199 390.339 0 360.997V0Z" fill="#9FC994"/>
<path d="M0 0H259.5C258.786 2.45179 256.077 12.9754 243 13.2693C169.393 25.9948 137.027 30.6917 116.5 61.7532C78.5672 116.589 52.9941 138.003 0 159.742V0Z" fill="#F4CAA7"/>
</g>
<defs>
<clipPath id="clip0_456_19">
<rect width="360" height="800" fill="white"/>
</clipPath>
</defs>
</svg>
