<svg width="65" height="21" viewBox="0 0 65 21" fill="none" xmlns="http://www.w3.org/2000/svg">
<defs>
<linearGradient id="paint0_linear_213_145" x1="29.8834" y1="21.3356" x2="30.4867" y2="-0.145565" gradientUnits="userSpaceOnUse">
<stop stop-color="#222357"/>
<stop offset="1" stop-color="#254AA5"/>
</linearGradient>
<clipPath id="clip0_213_145">
<rect width="65" height="21" fill="white"/>
</clipPath>
</defs>
<g clip-path="url(#clip0_213_145)">
<path d="M33.6164 6.68662C33.5794 9.6003 36.2221 11.2262 38.2128 12.1929C40.2581 13.1847 40.9451 13.8208 40.937 14.7079C40.9217 16.0653 39.3055 16.6644 37.7931 16.6877C35.1545 16.7284 33.6202 15.9777 32.4006 15.41L31.45 19.8425C32.6737 20.4044 34.9397 20.8945 37.2894 20.916C42.8051 20.916 46.4136 18.2027 46.4331 13.9959C46.4547 8.65682 39.0227 8.3613 39.0735 5.97489C39.091 5.25128 39.7838 4.47909 41.3021 4.28275C42.0536 4.18357 44.1281 4.10767 46.4801 5.18701L47.4032 0.89846C46.1383 0.439497 44.5127 1.52588e-05 42.4887 1.52588e-05C37.2973 1.52588e-05 33.6459 2.75026 33.6164 6.68662ZM56.2735 0.369411C55.2663 0.369411 54.4176 0.954882 54.0388 1.85333L46.1599 20.601H51.6715L52.7683 17.5803H59.5034L60.1396 20.601H64.9975L60.7584 0.369411H56.2735ZM57.0445 5.83473L58.6351 13.4319H54.2789L57.0445 5.83473ZM26.9339 0.369665L22.5894 20.6008H27.8415L32.184 0.36916H26.9339M19.1642 0.36916L13.6975 14.1398L11.4862 2.43121C11.2267 1.12415 10.202 0.369411 9.06413 0.369411H0.127851L0.00268555 0.956905C1.83727 1.35363 3.92167 1.9935 5.1845 2.67815C5.95733 3.09638 6.1777 3.46198 6.43159 4.45581L10.6199 20.601H16.1701L24.6794 0.369411L19.1642 0.36916Z" fill="url(#paint0_linear_213_145)"/>
</g>

</svg>
