<svg width="33" height="27" viewBox="0 0 33 27" fill="none" xmlns="http://www.w3.org/2000/svg">
<path d="M13.25 0.5H29.5C31.3037 0.5 32.75 1.94625 32.75 3.75V7H27.2087L23 11.2087V17.7087L19.75 20.9587V26.5H13.25V20.9587L10 17.7087V9.29125L13.25 6.04125V0.5ZM26.25 12.5413V16.75H32.75V10.25H28.5413L26.25 12.5413ZM7.70875 7L10 4.70875V0.5H3.5C1.69625 0.5 0.25 1.94625 0.25 3.75V7H7.70875ZM6.75 16.75V10.25H0.25V16.75H6.75ZM10 22.2913L7.70875 20H0.25V23.25C0.25 25.0537 1.69625 26.5 3.5 26.5H10V22.2913ZM25.2913 20L23 22.2913V26.5H29.5C31.3037 26.5 32.75 25.0537 32.75 23.25V20H25.2913Z" fill="#CDC8CB"/>
</svg>
